<?xml version="1.0" encoding="UTF-8" standalone="no"?>
<svg
   xmlns:dc="http://purl.org/dc/elements/1.1/"
   xmlns:cc="http://creativecommons.org/ns#"
   xmlns:rdf="http://www.w3.org/1999/02/22-rdf-syntax-ns#"
   xmlns:svg="http://www.w3.org/2000/svg"
   xmlns="http://www.w3.org/2000/svg"
   xmlns:sodipodi="http://sodipodi.sourceforge.net/DTD/sodipodi-0.dtd"
   xmlns:inkscape="http://www.inkscape.org/namespaces/inkscape"
   version="1.1"
   id="Capa_1"
   x="0px"
   y="0px"
   viewBox="0 0 53.627 53.627"
   style="enable-background:new 0 0 53.627 53.627;"
   xml:space="preserve"
   sodipodi:docname="Msearch.svg"
   inkscape:version="1.0.2-2 (e86c870879, 2021-01-15)"><metadata
   id="metadata86"><rdf:RDF><cc:Work
       rdf:about=""><dc:format>image/svg+xml</dc:format><dc:type
         rdf:resource="http://purl.org/dc/dcmitype/StillImage" /><dc:title></dc:title></cc:Work></rdf:RDF></metadata><defs
   id="defs84" /><sodipodi:namedview
   pagecolor="#ffffff"
   bordercolor="#666666"
   borderopacity="1"
   objecttolerance="10"
   gridtolerance="10"
   guidetolerance="10"
   inkscape:pageopacity="0"
   inkscape:pageshadow="2"
   inkscape:window-width="3840"
   inkscape:window-height="2066"
   id="namedview82"
   showgrid="false"
   inkscape:zoom="22.627417"
   inkscape:cx="34.498468"
   inkscape:cy="31.807167"
   inkscape:window-x="-11"
   inkscape:window-y="-11"
   inkscape:window-maximized="1"
   inkscape:current-layer="Capa_1" />
<path
   d="M53.627,49.385L37.795,33.553C40.423,30.046,42,25.709,42,21C42,9.42,32.58,0,21,0S0,9.42,0,21s9.42,21,21,21  c4.709,0,9.046-1.577,12.553-4.205l15.832,15.832L53.627,49.385z M2,21C2,10.523,10.523,2,21,2s19,8.523,19,19s-8.523,19-19,19  S2,31.477,2,21z M35.567,36.093c0.178-0.172,0.353-0.347,0.525-0.525c0.146-0.151,0.304-0.29,0.445-0.445l14.262,14.262  l-1.415,1.415L35.123,36.537C35.278,36.396,35.416,36.238,35.567,36.093z"
   id="path49"
   style="fill:#dde3ca;fill-opacity:1" />
<g
   id="g51">
</g>
<g
   id="g53">
</g>
<g
   id="g55">
</g>
<g
   id="g57">
</g>
<g
   id="g59">
</g>
<g
   id="g61">
</g>
<g
   id="g63">
</g>
<g
   id="g65">
</g>
<g
   id="g67">
</g>
<g
   id="g69">
</g>
<g
   id="g71">
</g>
<g
   id="g73">
</g>
<g
   id="g75">
</g>
<g
   id="g77">
</g>
<g
   id="g79">
</g>
<path
   style="fill:#dde3ca;stroke-width:0.0290504;fill-opacity:1"
   d="m 42.260915,43.655333 -7.110161,-7.110205 0.697414,-0.69696 0.697414,-0.69696 7.11714,7.117096 7.117141,7.117096 -0.68962,0.690069 c -0.37929,0.379538 -0.696268,0.690069 -0.704394,0.690069 -0.0081,0 -3.214346,-3.199593 -7.124934,-7.110205 z"
   id="path88" /><path
   style="fill:#dde3ca;stroke:#000000;stroke-width:1px;stroke-linecap:butt;stroke-linejoin:miter;stroke-opacity:1;fill-opacity:1"
   d="m 35.123,36.537 1.422582,-1.385792"
   id="path90" /><path
   style="fill:#dde3ca;stroke:#000000;stroke-width:1px;stroke-linecap:butt;stroke-linejoin:miter;stroke-opacity:1;fill-opacity:1"
   d="M 36.537,35.123 50.779863,49.3854"
   id="path92" /><path
   style="fill:#dde3ca;stroke:#000000;stroke-width:1px;stroke-linecap:butt;stroke-linejoin:miter;stroke-opacity:1;fill-opacity:1"
   d="M 50.799,49.385 49.384,50.8"
   id="path94" /><path
   style="fill:#dde3ca;stroke:#000000;stroke-width:1px;stroke-linecap:butt;stroke-linejoin:miter;stroke-opacity:1;fill-opacity:1"
   d="m 35.464844,36.890625 13.5625,13.558594"
   id="path96" /><path
   style="fill:#dde3ca;stroke:#000000;stroke-width:1px;stroke-linecap:butt;stroke-linejoin:miter;stroke-opacity:1;fill-opacity:1"
   d="m 48.964844,50.339844 0.496093,0.496093"
   id="path98" /><path
   style="fill:#dde3ca;stroke:#000000;stroke-width:1px;stroke-linecap:butt;stroke-linejoin:miter;stroke-opacity:1;fill-opacity:1"
   d="m 34.792969,36.265625 c 0.0039,0.0052 0.0078,0.01042 0.01172,0.01563"
   id="path100" /><path
   style="fill:#dde3ca;stroke:#000000;stroke-width:1px;stroke-linecap:butt;stroke-linejoin:miter;stroke-opacity:1;fill-opacity:1"
   d="m 35.339844,36.640625 -0.375,-0.253906"
   id="path102" /><path
   style="fill:#dde3ca;stroke-width:0.03125;fill-opacity:1"
   d="M 41.479082,45.682975 C 37.139263,41.343132 33.574129,37.79235 33.55656,37.79235 c -0.01757,0 -0.130078,0.07201 -0.250022,0.160032 -0.379966,0.278825 -1.202434,0.820065 -1.653284,1.087972 -2.765074,1.643084 -5.737087,2.593462 -9.017922,2.883712 -0.599719,0.05306 -2.681364,0.05234 -3.28125,-0.0011 C 17.124507,41.72421 15.157765,41.260832 13.200666,40.473154 11.033334,39.600854 9.1115261,38.426391 7.2603317,36.842857 6.820322,36.466466 5.5026164,35.145666 5.121102,34.6986 3.2368345,32.490585 1.8526785,30.021761 1.0072393,27.360988 -0.19670165,23.571935 -0.30413984,19.575921 0.69431326,15.722139 2.3818086,9.2088249 7.1948917,3.8285043 13.499304,1.4080382 c 4.842485,-1.85918514 10.214994,-1.85259389 15.057903,0.018474 0.886625,0.3425497 2.143808,0.9482136 2.96875,1.4302332 5.649581,3.3010938 9.471103,9.0445786 10.280725,15.4512306 0.133703,1.05801 0.156159,1.44765 0.155784,2.703124 -3.75e-4,1.219884 -0.02045,1.58151 -0.142322,2.5625 -0.353344,2.844139 -1.294844,5.580179 -2.780559,8.080422 -0.267906,0.45085 -0.809147,1.273319 -1.087972,1.653285 -0.08802,0.119943 -0.160031,0.232434 -0.160031,0.249975 0,0.01754 3.554272,3.58619 7.898381,7.930325 l 7.898384,7.898428 -2.093609,2.093784 c -1.151484,1.151578 -2.100688,2.093781 -2.109341,2.093781 -0.0087,0 -3.566497,-3.550781 -7.906315,-7.890625 z m 9.34375,3.703125 c 0,-0.01719 -0.01489,-0.03125 -0.03309,-0.03125 -0.0182,0 -0.0244,0.01406 -0.01378,0.03125 0.01062,0.01719 0.02551,0.03125 0.03309,0.03125 0.0076,0 0.01378,-0.01406 0.01378,-0.03125 z m -28.0625,-9.451959 c 1.400251,-0.140616 2.56988,-0.371919 3.826774,-0.756775 5.479507,-1.677809 9.981641,-5.840225 12.094516,-11.181891 0.645341,-1.631523 1.043157,-3.266679 1.239247,-5.09375 0.09475,-0.882765 0.103563,-2.788434 0.01684,-3.640624 -0.245175,-2.409414 -0.827447,-4.491265 -1.832,-6.550147 C 36.927004,10.295126 35.363994,8.2759455 33.307207,6.5119774 29.166979,2.9611856 23.608121,1.3821335 18.135332,2.2022471 13.257705,2.9331737 8.8240664,5.5845283 5.808833,9.5736005 3.0213756,13.261331 1.687981,17.834099 2.0429703,22.48832 c 0.4451056,5.835721 3.6136758,11.18003 8.5454867,14.413355 2.066703,1.354941 4.288201,2.265732 6.703125,2.748204 0.824378,0.1647 1.550366,0.255737 2.734375,0.342875 0.377345,0.02777 2.280354,-0.01302 2.734375,-0.05861 z m 12.647531,-3.140478 c -0.05534,-0.04944 -0.106628,-0.08388 -0.113981,-0.07653 -0.02218,0.02218 0.161515,0.199228 0.189053,0.182209 0.01405,-0.0087 -0.01974,-0.05624 -0.07507,-0.105681 z"
   id="path104" /><path
   style="fill:#dde3ca;stroke-width:0.03125;fill-opacity:1"
   d="m 41.48636,45.666141 c -4.335841,-4.330584 -7.905191,-7.873791 -7.931888,-7.873791 -0.0267,0 -0.247943,0.139035 -0.491653,0.308966 -3.050782,2.127194 -6.198551,3.319756 -9.911862,3.7552 -0.701365,0.08225 -2.59667,0.117847 -3.484375,0.06545 C 18.613217,41.859796 17.236593,41.6545 16.182207,41.40236 12.960361,40.631897 10.085642,39.177254 7.4634567,36.990566 6.9128345,36.531391 5.4584867,35.071575 4.977712,34.495475 2.0286663,30.961706 0.35047991,26.768673 0.070679,22.235009 0.02349292,21.470444 0.04865808,19.805287 0.11798442,19.104851 0.47166769,15.531422 1.6103959,12.314166 3.5523464,9.4017255 4.6860689,7.7014252 6.2060817,6.0313515 7.8072067,4.7268105 9.1456989,3.6362536 10.77283,2.6267791 12.33317,1.9188966 c 2.171856,-0.98531035 4.307307,-1.55187238 6.802162,-1.80469877 0.780963,-0.07914209 2.966474,-0.07866999 3.75,8.1006e-4 2.960337,0.30029367 5.536356,1.08061891 8.064296,2.44282911 3.205547,1.7273476 5.993413,4.3708307 7.92626,7.515764 1.481759,2.410973 2.470456,5.13752 2.866947,7.90625 0.176344,1.231401 0.187712,1.414054 0.187712,3.015624 0,1.599663 -0.01193,1.792034 -0.186265,3.002475 -0.259632,1.802723 -0.806682,3.69337 -1.56571,5.411216 -0.553147,1.251897 -1.2483,2.471228 -2.109784,3.700666 -0.152463,0.217584 -0.277206,0.41739 -0.277206,0.444015 0,0.02663 3.546365,3.600635 7.880809,7.942247 l 7.880813,7.893835 -2.076038,2.076212 c -1.141819,1.141916 -2.083103,2.075666 -2.091747,2.075 -0.0086,-6.56e-4 -3.563219,-3.544416 -7.899059,-7.875 z m 9.336472,3.719959 c 0,-0.01719 -0.01406,-0.03125 -0.03125,-0.03125 -0.01719,0 -0.03125,0.01406 -0.03125,0.03125 0,0.01719 0.01406,0.03125 0.03125,0.03125 0.01719,0 0.03125,-0.01406 0.03125,-0.03125 z M 22.119707,39.98026 c 1.607373,-0.06961 3.291401,-0.390772 4.935775,-0.941316 4.898815,-1.640144 8.992778,-5.295625 11.18265,-9.984941 1.010234,-2.163283 1.616275,-4.540478 1.743728,-6.839778 0.04603,-0.830315 0.01943,-2.558138 -0.04832,-3.139324 C 39.718372,17.229062 39.343038,15.666363 38.750194,14.148052 37.98181,12.180165 36.923954,10.391419 35.555135,8.7454755 35.137319,8.2430711 33.849504,6.9494774 33.318804,6.4991136 30.592633,4.1856236 27.336466,2.7093065 23.807207,2.1866397 22.168558,1.9439636 20.387195,1.9159712 18.760332,2.107333 14.086499,2.6570983 9.7934905,4.9219036 6.6805311,8.480113 c -2.80157,3.202282 -4.4050713,7.115692 -4.673549,11.405987 -0.044758,0.715239 -0.018781,2.266653 0.049187,2.9375 0.5228105,5.160209 3.0179524,9.76951 7.0479127,13.019682 1.9308382,1.557225 4.3148092,2.787053 6.7159242,3.464568 1.222221,0.344872 2.319124,0.538638 3.784076,0.668447 0.418815,0.03711 1.703425,0.03913 2.515625,0.004 z m 13.390625,-3.091381 c 0,-0.01566 -0.04517,-0.06648 -0.100375,-0.112935 -0.07023,-0.05909 -0.104422,-0.07233 -0.113841,-0.04407 -0.0074,0.02222 0.02448,0.07304 0.07087,0.112935 0.08793,0.07563 0.143347,0.09267 0.143346,0.04407 z"
   id="path106" /><path
   style="fill:#dde3ca;stroke-width:0.03125;fill-opacity:1"
   d="m 41.557207,45.740241 c -4.296875,-4.289353 -7.858888,-7.834556 -7.915588,-7.878228 l -0.103084,-0.07941 -0.553166,0.375418 c -1.054947,0.715966 -1.768255,1.139863 -2.71875,1.615669 -2.232217,1.117422 -4.628777,1.811985 -7.240662,2.09846 C 22.41334,41.93934 20.38881,41.96858 19.63128,41.92117 16.176153,41.704941 12.685493,40.55775 9.7447067,38.671991 8.2540514,37.716116 6.9911789,36.658738 5.6664583,35.257347 2.7805815,32.204447 0.85736347,28.20181 0.24775992,23.97985 0.08477131,22.851033 0.05821047,22.435033 0.05821047,21.0111 c 0,-1.422091 0.02614698,-1.83267 0.18905977,-2.968749 C 1.1986828,11.407632 5.2553192,5.6498649 11.221983,2.4654468 c 2.596285,-1.3856416 5.503094,-2.20088285 8.538349,-2.39465791 0.723598,-0.04619555 2.484464,-0.01950195 3.15625,0.04784672 2.919436,0.29268276 5.568426,1.09883199 8.063135,2.45379979 5.793874,3.1468645 9.834015,8.9307166 10.762396,15.4074156 0.180122,1.256595 0.188087,1.382996 0.189059,2.999999 9.69e-4,1.623584 -0.01217,1.833879 -0.190215,3.043075 -0.474113,3.219922 -1.684894,6.235583 -3.619919,9.016041 -0.357697,0.513975 -0.345922,0.487928 -0.266838,0.590206 0.08074,0.104413 2.711694,2.7475 10.062194,10.108575 l 5.640438,5.648553 -2.07785,2.078025 c -1.142816,1.142913 -2.084919,2.077288 -2.093563,2.076385 -0.0086,-9.03e-4 -3.531337,-3.511116 -7.828212,-7.800469 z m 9.265625,3.645859 c 0,-0.01719 -0.01406,-0.03125 -0.03125,-0.03125 -0.01719,0 -0.03125,0.01406 -0.03125,0.03125 0,0.01719 0.01406,0.03125 0.03125,0.03125 0.01719,0 0.03125,-0.01406 0.03125,-0.03125 z M 22.104918,39.980207 c 3.233256,-0.144532 6.533268,-1.233722 9.327289,-3.078541 4.860184,-3.209053 7.96514,-8.364879 8.515765,-14.140566 0.05452,-0.571852 0.07465,-2.315797 0.03455,-2.993771 -0.152,-2.570367 -0.884818,-5.203506 -2.089028,-7.506228 -0.993,-1.898842 -2.098581,-3.3868177 -3.622662,-4.8756549 -1.487391,-1.4529925 -2.979378,-2.5144109 -4.807378,-3.4200296 -2.797758,-1.3860513 -5.747542,-2.0425326 -8.875,-1.9751517 -1.568975,0.033803 -2.769641,0.1939559 -4.28125,0.57106 C 12.848415,3.4241965 9.5463064,5.382514 7.0984914,8.0225593 4.1685239,11.182621 2.4954335,14.908019 2.0512188,19.261101 c -0.086842,0.85101 -0.077644,2.786993 0.017426,3.667838 0.1549353,1.435502 0.4341986,2.739259 0.8665839,4.045695 2.0469778,6.184866 7.1732713,10.929945 13.4926983,12.48932 1.896689,0.468025 3.498082,0.61365 5.676991,0.516253 z m 13.367873,-3.130878 c -0.0595,-0.0896 -0.181209,-0.171413 -0.181209,-0.121797 0,0.04296 0.151547,0.189818 0.195875,0.189818 0.01678,0 0.01018,-0.03061 -0.01467,-0.06802 z"
   id="path108" /><path
   style="fill:#dde3ca;stroke-width:0.03125;fill-opacity:1"
   d="m 41.619707,45.804104 c -4.2625,-4.254138 -7.8236,-7.798622 -7.913553,-7.876635 l -0.163557,-0.141844 -0.773943,0.516044 c -0.962179,0.641553 -1.415732,0.912728 -2.211447,1.32221 -2.396033,1.233021 -4.692805,1.9197 -7.53125,2.251665 -0.603002,0.07053 -3.265864,0.0819 -3.890625,0.01662 C 16.439368,41.610463 14.169587,40.974513 11.866555,39.855579 9.466722,38.689613 7.520777,37.240266 5.5940427,35.183791 2.9771577,32.390691 1.1227065,28.718988 0.40207985,24.904013 0.12952653,23.461125 0.05862283,22.662519 0.05783713,21.026725 0.05717525,19.648701 0.07677814,19.306312 0.21567125,18.269956 1.0321401,12.177838 4.4137339,6.8187033 9.5728317,3.4407705 12.466708,1.5459972 15.701408,0.42974059 19.244707,0.10312104 19.841056,0.04814981 21.553943,0.02955967 22.23424,0.07067531 c 4.118271,0.24889911 8.035519,1.68659229 11.314576,4.15263119 4.420978,3.3248306 7.369719,8.2406345 8.176869,13.6315445 0.174681,1.166698 0.221925,1.835264 0.221925,3.140624 0,1.053738 -0.03344,1.697869 -0.12735,2.453125 -0.304394,2.448051 -0.976041,4.678305 -2.062844,6.849834 -0.463847,0.926814 -0.86615,1.604123 -1.568722,2.641066 l -0.406709,0.600279 0.117937,0.134096 c 0.14121,0.160563 4.132982,4.169863 10.782044,10.829388 l 4.875116,4.882787 -2.077975,2.07815 c -1.142885,1.142982 -2.085044,2.077372 -2.093688,2.076422 -0.0086,-9.37e-4 -3.503212,-3.482384 -7.765712,-7.736518 z m 9.203125,3.581996 c 0,-0.01719 -0.01406,-0.03125 -0.03125,-0.03125 -0.01719,0 -0.03125,0.01406 -0.03125,0.03125 0,0.01719 0.01406,0.03125 0.03125,0.03125 0.01719,0 0.03125,-0.01406 0.03125,-0.03125 z M 22.057207,39.980541 c 3.262589,-0.14255 6.564302,-1.227881 9.384493,-3.084853 1.08671,-0.71555 1.98665,-1.455681 2.992469,-2.461072 1.588485,-1.587809 2.66295,-3.082887 3.639431,-5.064141 1.130347,-2.293448 1.783179,-4.769986 1.909385,-7.24332 0.04317,-0.845997 0.01709,-2.392791 -0.05095,-3.022304 -0.34541,-3.195665 -1.3877,-6.083934 -3.140703,-8.703125 C 35.334738,8.2254052 33.301079,6.2487708 31.113091,4.8827036 26.326595,1.8942624 20.454079,1.169572 15.119707,2.9090605 13.454814,3.4519665 11.78527,4.2698321 10.345234,5.2479508 6.4430408,7.8984443 3.6712805,11.85707 2.5453654,16.387716 c -0.6207268,2.497785 -0.7323222,5.094463 -0.328296,7.639009 0.5475287,3.448322 2.0539451,6.674748 4.3917723,9.40625 0.4163885,0.486507 1.4703238,1.541569 1.948365,1.950447 2.7877983,2.384472 6.0510643,3.889216 9.5937503,4.423832 0.426089,0.0643 1.148573,0.143112 1.671875,0.182375 0.309629,0.02323 1.616277,0.01792 2.234375,-0.0091 z M 35.48145,36.859275 c -0.03576,-0.06682 -0.189868,-0.175912 -0.189868,-0.134406 0,0.03624 0.15655,0.192481 0.192859,0.192481 0.01555,0 0.01421,-0.02593 -0.003,-0.05808 z"
   id="path110" /><path
   style="fill:#dde3ca;stroke-width:0.0441942;fill-opacity:1"
   d="m 41.486898,45.674281 c -4.332598,-4.325729 -7.901259,-7.864963 -7.930359,-7.864963 -0.0291,0 -0.362284,0.207255 -0.740412,0.460568 -0.959956,0.643084 -1.537993,0.984511 -2.433176,1.437193 -2.272542,1.149192 -4.609701,1.844152 -7.225747,2.148594 -0.884791,0.102966 -3.471058,0.103757 -4.33103,0.0013 C 14.66073,41.360834 11.154361,39.916802 7.9245754,37.367376 7.2216414,36.812516 5.6152614,35.248287 5.0199323,34.538949 3.0425602,32.1829 1.6643096,29.613405 0.84467147,26.754943 -0.42414849,22.329974 -0.18287065,17.557691 1.5280957,13.237357 1.8527992,12.417454 2.7044076,10.736154 3.1734032,9.9890854 4.0570216,8.5815602 4.903314,7.509421 6.0469448,6.3486938 8.267904,4.094532 10.686631,2.5104814 13.633359,1.380268 16.722032,0.1956118 20.273898,-0.22192428 23.638499,0.20412343 30.593501,1.084811 36.674783,5.4328795 39.796338,11.756852 c 1.553244,3.146723 2.251621,6.38849 2.14218,9.943689 -0.09388,3.049579 -0.828541,5.906456 -2.233185,8.684156 -0.458738,0.90716 -0.803106,1.490345 -1.436244,2.432275 -0.253834,0.377633 -0.461517,0.70962 -0.461517,0.737748 0,0.02813 3.543589,3.603424 7.874642,7.945101 l 7.874641,7.893961 -2.073979,2.074329 c -1.140692,1.140885 -2.084003,2.073612 -2.096254,2.072733 -0.01225,-8.84e-4 -3.567128,-3.540833 -7.899724,-7.866563 z m -19.357243,-5.69904 c 4.218077,-0.224109 8.210837,-1.86938 11.435276,-4.712062 3.555944,-3.134937 5.786621,-7.407286 6.340488,-12.143745 0.09576,-0.818869 0.130696,-2.385986 0.074,-3.319242 C 39.733351,15.749363 38.175304,11.878392 35.514651,8.7074544 35.021777,8.1200537 33.756161,6.8706376 33.11193,6.3354899 31.305194,4.8346769 29.194475,3.6716576 26.913228,2.9199672 23.600692,1.8284582 19.886421,1.6882006 16.461786,2.5253016 13.401883,3.2732495 10.589541,4.7851065 8.1279335,7.0054086 6.8695402,8.1404449 5.6140978,9.6811629 4.6703855,11.248619 1.82718,15.971035 1.1991257,21.826929 2.9735023,27.070134 c 1.5025407,4.439941 4.5869869,8.169304 8.6711187,10.484135 2.438056,1.381857 5.076029,2.185478 7.932854,2.41663 0.630004,0.05098 1.642051,0.0527 2.55218,0.0043 z m 13.351137,-3.117326 c -0.01425,-0.03713 -0.06485,-0.08836 -0.112444,-0.11383 -0.07729,-0.04136 -0.08151,-0.03692 -0.0395,0.04157 0.03932,0.07347 0.07556,0.10284 0.168193,0.13629 0.0053,0.0019 -0.002,-0.02689 -0.01625,-0.06403 z"
   id="path136" /><path
   style="fill:#dde3ca;stroke-width:0.00390625;fill-opacity:1"
   d="m 35.476384,36.866074 c -5.01e-4,-0.0078 -0.07176,-0.07986 -0.103518,-0.104738 -0.01611,-0.01262 -0.02858,-0.02367 -0.0277,-0.02455 0.0042,-0.0042 0.055,0.02946 0.08063,0.05348 0.0293,0.02746 0.05659,0.06641 0.05292,0.07554 -0.0015,0.0037 -0.0021,0.0038 -0.0023,2.6e-4 z"
   id="path138" /><path
   style="fill:#dde3ca;stroke-width:0.00390625;fill-opacity:1"
   d="m 35.463709,36.90646 c -0.03827,-0.01664 -0.05553,-0.02738 -0.07893,-0.04915 -0.01737,-0.01615 -0.04151,-0.04686 -0.04151,-0.05279 0,-0.0013 0.01626,0.01223 0.03613,0.03016 0.03906,0.03523 0.06591,0.05501 0.08619,0.06348 0.01345,0.0056 0.01975,0.004 0.02295,-0.0058 10e-4,-0.0032 0.0032,9.12e-4 0.0047,0.0092 0.0016,0.0083 0.0022,0.01567 0.0015,0.01643 -7.61e-4,7.6e-4 -0.01472,-0.0044 -0.03102,-0.0115 z"
   id="path140" /><path
   style="fill:#dde3ca;stroke-width:0.00390625;fill-opacity:1"
   d="m 36.269043,40.507209 c -2.273254,-2.273592 -2.680079,-2.6789 -2.705957,-2.695874 -0.008,-0.0052 -0.01105,-0.0045 -0.03711,0.0084 -0.01563,0.0078 -0.07412,0.04765 -0.12998,0.08864 -1.15829,0.850061 -2.36983,1.566907 -3.658203,2.164489 -1.206577,0.559644 -2.489983,1.01019 -3.77539,1.32537 -0.190913,0.04681 -0.173829,0.04362 -0.173829,0.03249 0,-0.0087 0.0054,-0.01043 0.125977,-0.03987 1.750149,-0.427257 3.371608,-1.05051 4.958008,-1.90575 0.627558,-0.338321 1.146266,-0.654325 1.867187,-1.137518 0.253483,-0.169895 0.541671,-0.370354 0.589844,-0.410285 0.03371,-0.02794 -0.249986,0.154837 -0.544922,0.351082 -0.835008,0.555602 -1.298194,0.836606 -1.943359,1.178993 -1.509105,0.800878 -2.954727,1.37354 -4.525391,1.792667 -0.119488,0.03188 -0.517489,0.132291 -0.524414,0.132297 -0.0016,1e-6 -0.0029,-0.445164 -0.0029,-0.989255 l 1.4e-5,-0.989258 0.102525,-0.02697 c 1.577892,-0.415131 3.123164,-1.052811 4.561509,-1.882377 1.828045,-1.054325 3.500189,-2.431048 4.894894,-4.030102 0.53919,-0.618191 1.030509,-1.261126 1.487317,-1.946289 l 0.0905,-0.135743 h 1.119431 1.119432 l -0.0076,0.0127 c -0.0042,0.007 -0.01518,0.02588 -0.02442,0.04199 -0.211529,0.368708 -0.484057,0.799952 -0.871412,1.378906 -0.143118,0.213908 -0.289491,0.439083 -0.33137,0.509766 -0.05147,0.08688 0.210083,-0.286105 0.412263,-0.587891 0.338312,-0.504985 0.58354,-0.891874 0.789831,-1.246094 0.05558,-0.09544 0.06375,-0.107565 0.07322,-0.108707 l 0.01066,-0.0013 -0.01485,0.02668 c -0.0082,0.01467 -0.04948,0.08556 -0.09179,0.157535 -0.373488,0.635294 -0.786343,1.259522 -1.232348,1.863281 -0.04423,0.05988 -0.05909,0.08326 -0.06831,0.10751 -0.0033,0.0087 6.14e-4,0.01426 0.04177,0.05944 0.02498,0.02742 2.147036,2.151754 4.71568,4.720749 l 4.670261,4.670898 h -0.01578 -0.01578 l -2.579992,-2.581055 c -1.418996,-1.41958 -3.089647,-3.092578 -3.712559,-3.717773 -0.622912,-0.625195 -1.2248,-1.229004 -1.337528,-1.341797 -0.112729,-0.112793 -0.06006,-0.05837 0.11704,0.120937 0.366914,0.371488 1.167516,1.17912 1.607139,1.621251 0.163423,0.164355 0.6055,0.609082 0.982392,0.988281 0.750309,0.754899 1.015387,1.021035 2.73853,2.749445 0.63905,0.641003 1.384873,1.389392 1.657386,1.663086 l 0.495477,0.497625 h -4.182635 -4.182635 l -0.248489,-0.24707 C 38.42168,42.614852 37.993478,42.189022 37.606788,41.804452 36.976023,41.177143 36.183681,40.39035 35.642091,39.853513 35.534669,39.747035 35.360206,39.573808 35.254396,39.468565 35.148585,39.363323 35.062013,39.278154 35.062013,39.2793 c 0,0.0011 0.403857,0.404465 0.897461,0.896263 0.493603,0.491799 1.331957,1.327995 1.863009,1.858214 0.939949,0.938475 0.965167,0.964034 0.951171,0.964034 -0.01395,0 -0.08896,-0.07459 -2.504611,-2.490602 z M 35.499389,36.91285 c -1.1e-4,-0.0095 -6.93e-4,-0.01 -0.0051,-0.0042 -0.0046,0.0061 -0.006,0.006 -0.02038,-6.6e-4 -0.0136,-0.0063 -0.01427,-0.0072 -0.0057,-0.0076 0.0083,-3.4e-4 0.0071,-0.0016 -0.0073,-0.0081 -0.02006,-0.0091 -0.02496,-0.0097 -0.01445,-0.0017 0.01403,0.01061 -0.0023,0.0061 -0.02218,-0.0062 -0.01065,-0.0066 -0.02135,-0.01126 -0.02378,-0.01045 -0.0024,8.08e-4 0.004,0.0064 0.01429,0.01243 0.01868,0.01095 0.07616,0.03714 0.0817,0.03723 0.0016,3.9e-5 0.0029,-0.0048 0.0028,-0.01069 z m -0.0038,-0.01806 c 0,-0.0041 -0.01291,-0.03718 -0.02029,-0.05196 -0.0087,-0.01751 -0.0101,-0.01847 -0.0204,-0.01452 -0.0085,0.0033 -0.0077,0.01065 0.0021,0.01948 0.0046,0.0041 0.01352,0.01667 0.0199,0.02795 0.0064,0.01128 0.0132,0.02051 0.01515,0.02051 0.0019,0 0.0035,-6.58e-4 0.0035,-0.0015 z m -0.0765,-0.03158 c -0.0084,-0.0074 -0.0168,-0.01358 -0.01864,-0.01367 -0.0018,-9e-5 -0.0068,-0.0046 -0.01103,-0.0099 -0.0042,-0.0054 -0.0094,-0.0098 -0.01154,-0.0098 -0.0064,0 -1.37e-4,0.007 0.02445,0.02745 0.02624,0.02184 0.04048,0.02687 0.01676,0.0059 z m -0.03612,-0.01064 c -0.0089,-0.009 -0.01725,-0.01526 -0.01856,-0.01395 -0.0033,0.0033 0.02257,0.03013 0.02924,0.03022 0.003,3.9e-5 -0.0018,-0.0073 -0.01068,-0.01626 z m -0.0202,-0.02296 c 0,-0.0023 0.0016,-0.0031 0.0036,-0.0019 0.0073,0.0045 0.0077,-0.0048 4.88e-4,-0.01135 -0.007,-0.0064 -0.0076,-0.0063 -0.01181,0.0015 -0.0045,0.0084 -0.0026,0.01587 0.004,0.01587 0.002,0 0.0037,-0.0019 0.0037,-0.0041 z m 0.07947,-0.0058 c -0.0013,-0.0033 -0.0032,-0.0052 -0.0042,-0.0042 -0.001,0.001 -7.03e-4,0.0037 7.14e-4,0.006 0.0039,0.0062 0.0061,0.005 0.0035,-0.0019 z m 0.01055,-0.01317 c -0.0024,-0.0045 -0.0072,-0.0081 -0.01076,-0.0081 -0.0052,0 -0.0047,0.0018 0.0028,0.0098 0.01048,0.01116 0.01441,0.01037 0.008,-0.0016 z m -0.100147,0.0011 c 0.0021,-0.0055 -0.0095,-0.02144 -0.03397,-0.0464 -0.0021,-0.0021 0.0028,0.0088 0.01085,0.02441 0.01514,0.02922 0.01895,0.03284 0.02311,0.02199 z m 0.03977,-0.03486 c -0.017,-0.01601 -0.02946,-0.02911 -0.02769,-0.02911 0.0018,0 0.01605,0.0097 0.03175,0.02148 0.0157,0.01182 0.02948,0.02148 0.03062,0.02148 0.01394,0 -0.03471,-0.03696 -0.07584,-0.05762 -0.03429,-0.01722 -0.04467,-0.01976 -0.04941,-0.01209 -0.0016,0.0027 -0.0011,0.0035 0.0014,0.0019 0.0052,-0.0032 0.05285,0.02881 0.08884,0.05977 0.01504,0.01294 0.02822,0.02346 0.0293,0.02339 0.0011,-7.4e-5 -0.01195,-0.01323 -0.02895,-0.02925 z"
   id="path142" /><path
   style="fill:#dde3ca;fill-opacity:1;stroke-width:0.00390625"
   d="m 36.306152,40.54433 c -2.256719,-2.257048 -2.717765,-2.716424 -2.7427,-2.732762 -0.0084,-0.0055 -0.01098,-0.0049 -0.03745,0.0083 -0.01564,0.0078 -0.07415,0.04772 -0.130003,0.08863 -1.209027,0.885433 -2.444438,1.611081 -3.781248,2.221006 -1.166733,0.532326 -2.415108,0.965775 -3.658203,1.270165 -0.184428,0.04516 -0.167971,0.04212 -0.167956,0.03103 1.1e-5,-0.0088 0.0069,-0.01079 0.180664,-0.05358 1.809233,-0.445455 3.500306,-1.110992 5.145495,-2.025057 0.543634,-0.302043 1.077147,-0.633304 1.708985,-1.061119 0.282078,-0.190994 0.54375,-0.37545 0.496093,-0.349702 -0.03784,0.02044 -0.354318,0.226298 -0.609375,0.396369 -0.799116,0.532848 -1.322049,0.845386 -2.048828,1.224508 -0.164443,0.08578 -0.612136,0.308961 -0.763672,0.380698 -1.182281,0.559697 -2.330398,0.982434 -3.566337,1.313127 -0.121156,0.03242 -0.532684,0.136357 -0.539875,0.136357 -0.0017,0 -0.0032,-0.445191 -0.0032,-0.989314 v -0.989315 l 0.06543,-0.01708 c 1.384767,-0.361453 2.753922,-0.897688 4.038086,-1.581534 2.28847,-1.218659 4.34101,-2.922807 5.969151,-4.955962 0.338239,-0.42238 0.653685,-0.853283 0.962967,-1.315429 l 0.1013,-0.151368 h 1.119264 c 0.615595,0 1.118506,0.0013 1.117581,0.0029 -0.242654,0.42247 -0.475239,0.791889 -0.893954,1.419884 -0.185016,0.277489 -0.343106,0.521334 -0.343106,0.529222 0,0.01119 0.253339,-0.35267 0.441204,-0.633676 0.318575,-0.476521 0.557532,-0.854354 0.767082,-1.212891 0.05232,-0.08951 0.06187,-0.103683 0.07064,-0.104752 0.0056,-6.79e-4 0.01014,-4.81e-4 0.01014,4.41e-4 0,0.0026 -0.07569,0.132721 -0.15154,0.260561 -0.356161,0.600262 -0.79118,1.254484 -1.193822,1.795379 -0.0397,0.05333 -0.06089,0.0891 -0.06089,0.102803 0,0.0053 0.01743,0.02731 0.04758,0.06 0.02617,0.02837 2.147375,2.15173 4.713787,4.718576 4.662911,4.663699 4.666193,4.666992 4.650639,4.666992 -0.01553,0 -0.02126,-0.0057 -2.496308,-2.481445 -1.364409,-1.364795 -3.046627,-3.048404 -3.738262,-3.741354 -0.691635,-0.692949 -1.174819,-1.176347 -1.073742,-1.074219 1.205392,1.217939 3.356393,3.380317 6.108458,6.140768 l 1.150789,1.154297 -4.182097,9.78e-4 -4.182098,9.79e-4 -0.224961,-0.223545 C 38.458167,42.651321 38.034362,42.229885 37.640106,41.837745 36.983334,41.1845 35.706368,39.917206 35.3042,39.519534 c -0.09131,-0.09029 -0.04736,-0.04557 0.09766,0.09936 0.145019,0.144938 0.516797,0.515903 0.826172,0.824365 2.519665,2.512235 2.561837,2.554548 2.545989,2.554548 -0.01443,0 -0.06625,-0.05152 -2.467866,-2.453481 z m 3.365257,-5.090733 c 0,-6.53e-4 -0.0066,-0.0072 -0.01465,-0.01465 l -0.01465,-0.01346 0.01346,0.01465 c 0.01253,0.01363 0.01584,0.01644 0.01584,0.01346 z m -0.03906,-0.03899 c 0,-6.1e-4 -0.01011,-0.01072 -0.02246,-0.02246 l -0.02246,-0.02135 0.02135,0.02246 c 0.01984,0.02087 0.02357,0.02425 0.02357,0.02135 z"
   id="path144"
   sodipodi:nodetypes="ssscssscssssssssscsssscscsssssscsssssssssccccssssssssccsssscss" /></svg>
